<svg height="413pt" viewBox="-10 0 413 413" width="413pt" xmlns="http://www.w3.org/2000/svg"><path d="m113 160c0-5.523438-4.476562-10-10-10h-93c-5.523438 0-10 4.476562-10 10v93c0 5.523438 4.476562 10 10 10h93c5.523438 0 10-4.476562 10-10zm-93 10h72v72h-72zm0 0"/><path d="m149.667969 216h232.664062c5.523438 0 10-4.476562 10-10s-4.476562-10-10-10h-232.664062c-5.523438 0-10 4.476562-10 10s4.476562 10 10 10zm0 0"/><path d="m113 10c0-5.523438-4.476562-10-10-10h-93c-5.523438 0-10 4.476562-10 10v93c0 5.523438 4.476562 10 10 10h93c5.523438 0 10-4.476562 10-10zm-93 10h72v72h-72zm0 0"/><path d="m149.667969 66h232.664062c5.523438 0 10-4.476562 10-10s-4.476562-10-10-10h-232.664062c-5.523438 0-10 4.476562-10 10s4.476562 10 10 10zm0 0"/><path d="m113 310c0-5.523438-4.476562-10-10-10h-93c-5.523438 0-10 4.476562-10 10v93c0 5.523438 4.476562 10 10 10h93c5.523438 0 10-4.476562 10-10zm-93 10h72v72h-72zm0 0"/><path d="m149.667969 366h232.664062c5.523438 0 10-4.476562 10-10s-4.476562-10-10-10h-232.664062c-5.523438 0-10 4.476562-10 10s4.476562 10 10 10zm0 0"/></svg>