<svg height="498pt" viewBox="0 0 498.128 498" width="498pt" xmlns="http://www.w3.org/2000/svg" xmlns:xlink="http://www.w3.org/1999/xlink"><linearGradient id="a"><stop offset="0" stop-color="#fff200"/><stop offset="1" stop-color="#cd118c"/></linearGradient><linearGradient id="b" gradientUnits="userSpaceOnUse" x1="51.656" x2="555.656" xlink:href="#a" y1="548.256" y2="108.256"/><linearGradient id="c" gradientUnits="userSpaceOnUse" x1="-30.112" x2="473.888" xlink:href="#a" y1="454.592" y2="14.592"/><linearGradient id="d" gradientUnits="userSpaceOnUse" x1="5.056" x2="509.056" xlink:href="#a" y1="494.872" y2="54.872"/><linearGradient id="e" gradientUnits="userSpaceOnUse" x1="3.28" x2="507.28" xlink:href="#a" y1="492.84" y2="52.84"/><path d="m416.976562 334.519531v-261.480469c-.066406-13.226562-10.773437-23.933593-24-24-13.253906 0-24 10.746094-24 24v261.441407c-23.617187 11.246093-36.304687 37.34375-30.554687 62.863281 5.746094 25.519531 28.394531 43.660156 54.554687 43.695312 6.261719-.011718 12.476563-1.050781 18.398438-3.078124 14.238281-4.980469 25.871094-15.480469 32.273438-29.136719 3.550781-7.421875 5.371093-15.554688 5.328124-23.785157.027344-14.105468-5.3125-27.695312-14.9375-38.007812-4.851562-5.203125-10.640624-9.445312-17.0625-12.511719zm-24-269.480469c2.160157-.003906 4.222657.886719 5.703126 2.457032 1.488281 1.460937 2.316406 3.460937 2.296874 5.542968v4h-16v-4c0-4.417968 3.582032-8 8-8zm36.183594 336.945313c-4.554687 9.742187-12.84375 17.238281-22.992187 20.800781-4.246094 1.460938-8.703125 2.226563-13.191407 2.253906-19.417968-.074218-35.976562-14.082031-39.269531-33.214843-3.289062-19.136719 7.632813-37.871094 25.910157-44.433594l5.359374-1.871094v-252.480469h16v252.425782l5.296876 1.902344c6.113281 2.191406 11.613281 5.808593 16.046874 10.554687 6.867188 7.355469 10.675782 17.054687 10.65625 27.117187.027344 5.863282-1.277343 11.660157-3.816406 16.945313zm0 0" fill="url(#b)"/><path d="m272.976562 161.039062h48v16h-48zm0 0" fill="url(#c)"/><path d="m288.976562 225.039062h32v16h-32zm0 0" fill="url(#d)"/><path d="m473.878906 317.191406 24.25-1.304687-20.273437-13.367188c-18.023438-11.820312-28.878907-31.925781-28.878907-53.480469 0-21.550781 10.855469-41.65625 28.878907-53.480468l20.183593-13.3125-24.144531-1.351563c-8.675781-.527343-17.15625-2.820312-24.917969-6.734375v-109.121094c-.039062-30.910156-25.089843-55.960937-56-56-14.863281-.066406-29.128906 5.851563-39.578124 16.425782-1.191407 1.183594-2.285157 2.398437-3.4375 3.726562-8.394532 10.058594-12.992188 22.746094-12.984376 35.847656v1.785157c-11.8125-11.199219-18.914062-26.480469-19.855468-42.726563l-1.410156-23.9999998-13.253907 20.0624998c-11.828125 18.015625-31.929687 28.871094-53.480469 28.878906-21.554687-.007812-41.652343-10.863281-53.480468-28.878906l-13.257813-20.097656-1.40625 24c-1.203125 21.523438-13.175781 40.988281-31.84375 51.765625-18.664062 10.78125-41.507812 11.421875-60.75 1.707031l-21.542969-10.773437 10.808594 21.542969c9.714844 19.242187 9.070313 42.082031-1.707031 60.75-10.78125 18.664062-30.242187 30.636718-51.765625 31.839843l-24 1.410157 20.066406 13.253906c18.015625 11.828125 28.871094 31.929687 28.878906 53.480468-.007812 21.554688-10.863281 41.652344-28.878906 53.480469l-20.097656 13.257813 24 1.40625c21.527344 1.195312 41 13.164062 51.789062 31.828125 10.785157 18.667969 11.429688 41.519531 1.714844 60.765625l-10.808594 21.542968 21.542969-10.808593c19.242188-9.714844 42.085938-9.070313 60.75 1.707031 18.667969 10.78125 30.640625 30.246094 31.84375 51.765625l1.40625 24 13.257813-20.097656c11.820312-18.019531 31.925781-28.875 53.480468-28.875 21.554688 0 41.65625 10.855469 53.480469 28.875l13.351563 20.234375 1.3125-24.199219c.296875-5.144531 1.230468-10.230469 2.773437-15.144531 39.613281 39.066406 102.96875 40.007812 143.722657 2.128906 40.75-37.875 44.445312-101.128906 8.375-143.492188.625-.054687 1.273437-.191406 1.886718-.222656zm-24.246094-19.351562c-.226562-.144532-.433593-.320313-.65625-.464844v-.445312c.222657.269531.421876.589843.65625.910156zm5.511719-104c-2.203125 2.332031-4.261719 4.796875-6.167969 7.375v-9.597656c2.039063.742187 4.0625 1.566406 6.167969 2.222656zm-165.898437 184.886718v.089844c-13.027344 4.105469-26.609375 6.203125-40.269532 6.222656-60.25.105469-113.386718-39.441406-130.582031-97.183593-17.195312-57.742188 5.648438-119.917969 56.140625-152.789063 50.492188-32.871094 116.59375-28.605468 162.441406 10.484375v151.792969c-28.09375 17.851562-45.863281 48.148438-47.730468 81.382812zm14.929687 76.464844c-30.894531-29.546875-79.570312-29.546875-110.464843 0-11.941407-41.0625-54.117188-65.425781-95.65625-55.261718 4.902343-19.980469 1.890624-41.082032-8.40625-58.890626-10.3125-17.808593-27.085938-30.964843-46.839844-36.734374 14.242187-14.871094 22.1875-34.671876 22.167968-55.265626.011719-20.585937-7.933593-40.378906-22.167968-55.246093 19.761718-5.773438 36.542968-18.933594 46.855468-36.753907 10.308594-17.808593 13.320313-38.917968 8.40625-58.902343 19.988282 4.910156 41.097657 1.890625 58.90625-8.425781 17.8125-10.308594 30.964844-27.082032 36.734376-46.839844 14.871093 14.246094 34.671874 22.1875 55.265624 22.167968 20.585938.015626 40.382813-7.925781 55.246094-22.167968 5.335938 18.167968 16.941406 33.851562 32.753906 44.265625v38.152343c-6.433593-4.605468-13.214843-8.699218-20.28125-12.25h4.28125v-16h-32v5.417969c-61.914062-17.007812-127.835937 6.726563-164.703124 59.289063-36.867188 52.566406-36.730469 122.628906.34375 175.050781 37.074218 52.421875 103.089843 75.890625 164.933593 58.644531 1.597657 16.507813 7.164063 32.386719 16.226563 46.277344.710937 1.105469 1.597656 2.066406 2.328125 3.136719-1.546875 3.351562-2.859375 6.804687-3.929688 10.335937zm175.679688-56.199218c-7.292969 45.285156-48.152344 77.375-93.878907 73.726562-45.722656-3.648438-80.976562-41.808594-81-87.679688 0-1.597656.070313-3.277343.222657-5.160156 1.617187-29.589844 18.09375-56.351562 43.785156-71.117187l4-2.304688v-241.417969c-.011719-9.320312 3.242187-18.347656 9.199219-25.519531.800781-.96875 1.601562-1.855469 2.558594-2.765625 7.457031-7.542968 17.632812-11.761718 28.234374-11.714844 22.078126.027344 39.972657 17.921876 40 40v241.402344l4 2.3125c6.269532 3.660156 12.082032 8.054688 17.320313 13.085938 17.089844 16.582031 26.71875 39.386718 26.679687 63.199218.011719 4.675782-.359374 9.339844-1.105468 13.953126zm0 0" fill="url(#e)"/></svg>